PathFileType	4	(X/Y/Z)	/Users/itak/Documents/Research/Walk-IL/dataset/trc/00176_00008.trc
DataRate	CameraRate	NumFrames	NumMarkers	Units	OrigDataRate	OrigDataStartFrame	OrigNumFrames
100.000000	100.000000	4	53	mm	100.000000	77	619
Frame#	Time	RPSI			LPSI			L3			STRN			T10			C7			CLAV			RBAK			LBAK			LSHO			LUPA			LAEL			LAOL			LWTS			LWPS			LFRA			LIFD			LHPS			LHTS			RSHO			RUPA			RAEL			RAOL			RWTS			RWPS			RFRA			RIFD			RHTS			RHPS			RBHD			LFHD			RFHD			LBHD			LHIP			RHIP			RASI			LASI			LKNE			LTHI			LANK			LTIP			LTOE			LMT1			LMT5			LHEE			RKNE			RTHI			RANK			RTIP			RTOE			RMT1			RMT5			RHEE			
		X1	Y1	Z1	X2	Y2	Z2	X3	Y3	Z3	X4	Y4	Z4	X5	Y5	Z5	X6	Y6	Z6	X7	Y7	Z7	X8	Y8	Z8	X9	Y9	Z9	X10	Y10	Z10	X11	Y11	Z11	X12	Y12	Z12	X13	Y13	Z13	X14	Y14	Z14	X15	Y15	Z15	X16	Y16	Z16	X17	Y17	Z17	X18	Y18	Z18	X19	Y19	Z19	X20	Y20	Z20	X21	Y21	Z21	X22	Y22	Z22	X23	Y23	Z23	X24	Y24	Z24	X25	Y25	Z25	X26	Y26	Z26	X27	Y27	Z27	X28	Y28	Z28	X29	Y29	Z29	X30	Y30	Z30	X31	Y31	Z31	X32	Y32	Z32	X33	Y33	Z33	X34	Y34	Z34	X35	Y35	Z35	X36	Y36	Z36	X37	Y37	Z37	X38	Y38	Z38	X39	Y39	Z39	X40	Y40	Z40	X41	Y41	Z41	X42	Y42	Z42	X43	Y43	Z43	X44	Y44	Z44	X45	Y45	Z45	X46	Y46	Z46	X47	Y47	Z47	X48	Y48	Z48	X49	Y49	Z49	X50	Y50	Z50	X51	Y51	Z51	X52	Y52	Z52	X53	Y53	Z53	

78	0.77	824.95947265625	1051.296752929688	281.5726318359375	833.653076171875	1049.8671875	155.7749633789062	828.9562377929688	1090.508911132812	219.9227752685547	1088.130249023438	1301.050048828125	221.0615234375	796.5221557617188	1244.286254882812	210.5048522949219	854.72021484375	1515.422241210938	197.6986083984375	1058.066162109375	1414.48779296875	208.8349304199219	788.5789794921875	1339.831420898438	306.387939453125	852.0858764648438	1488.751831054688	98.09367370605469	932.5281982421875	1477.803466796875	21.4608325958252	902.4067993164062	1344.24462890625	-50.97946929931641	918.9732666015625	1125.984252929688	-65.03328704833984	864.9451293945312	1112.364501953125	5.003618717193604	1036.136352539062	900.774169921875	-19.65213012695312	957.3994140625	873.618408203125	-63.59031677246094	937.3082885742188	1014.899475097656	-74.67627716064453	1057.849365234375	714.0633544921875	7.90580415725708	980.5809936523438	804.7803955078125	-55.44141006469727	1050.776611328125	822.31298828125	-36.56758117675781	913.8475341796875	1496.189819335938	381.8900756835938	892.0343627929688	1430.105102539062	451.6290588378906	883.0664672851562	1141.214965820312	507.2966918945312	884.113037109375	1131.624145507812	410.6051635742188	1029.9638671875	918.9965209960938	491.2709045410156	957.2733154296875	900.1876220703125	538.0643310546875	910.4120483398438	1069.782470703125	526.3543701171875	1051.599853515625	733.523681640625	467.1167297363281	1060.330200195312	826.8600463867188	500.5080261230469	988.4375	818.1343383789062	535.3599243164062	897.0867309570312	1666.630615234375	276.8927917480469	1042.19873046875	1741.171752929688	132.7110748291016	1052.22314453125	1743.36865234375	261.8599548339844	875.8231811523438	1670.49072265625	140.9009704589844	941.79833984375	988.1245727539062	44.22144317626953	974.6524047851562	1014.636657714844	409.9541320800781	1057.773559570312	1040.678955078125	357.8949890136719	1063.739624023438	1026.841918945312	100.8051605224609	938.4904174804688	493.3443298339844	77.15346527099609	952.8788452148438	635.677001953125	48.85522079467773	836.2530517578125	39.19901275634766	68.050537109375	889.8443603515625	273.8186950683594	59.12149429321289	1056.525634765625	37.71935653686523	76.73908233642578	1010.269836425781	39.13911437988281	127.7851715087891	941.681640625	32.10404205322266	20.2491340637207	790.8244018554688	40.12125778198242	140.7180786132812	968.15673828125	516.1404418945312	398.5175170898438	1022.660339355469	783.5291137695312	423.1527709960938	850.5589599609375	37.59196472167969	407.5956420898438	969.0482177734375	395.4772033691406	381.4935302734375	1075.738525390625	39.78477478027344	373.211669921875	1018.783508300781	38.33456802368164	328.8202819824219	963.1666259765625	33.62918472290039	444.4746704101562	799.2533569335938	37.43428039550781	339.3526306152344	
79	0.78	824.802978515625	1051.256103515625	281.5239562988281	833.6695556640625	1049.919555664062	155.6100921630859	829.0518798828125	1090.528930664062	219.7113952636719	1088.136108398438	1301.03759765625	221.002197265625	796.6533203125	1244.248657226562	210.3199768066406	854.7008056640625	1515.39599609375	197.5240783691406	1058.0302734375	1414.4384765625	208.7208709716797	788.5930786132812	1339.828979492188	306.1694641113281	852.130615234375	1488.727783203125	97.96511077880859	932.5787353515625	1477.756225585938	21.31747817993164	902.44287109375	1344.173706054688	-51.10853576660156	918.9765625	1125.925415039062	-65.09979248046875	864.9619750976562	1112.336303710938	4.964951515197754	1035.998291015625	900.6177978515625	-19.71483421325684	957.2312622070312	873.5117797851562	-63.61702346801758	937.2653198242188	1014.867065429688	-74.738037109375	1057.509765625	713.8574829101562	7.817992687225342	980.3104248046875	804.633056640625	-55.50125885009766	1050.557983398438	822.173095703125	-36.65128326416016	913.790771484375	1496.161499023438	381.7684936523438	891.9537963867188	1430.065063476562	451.4833374023438	882.92626953125	1141.168090820312	507.0967407226562	884.0405883789062	1131.588500976562	410.4158020019531	1029.9052734375	918.9793090820312	491.074951171875	957.2035522460938	900.1442260742188	537.81396484375	910.2735595703125	1069.72216796875	526.1513061523438	1051.5703125	733.5098876953125	466.8560791015625	1060.249389648438	826.8572998046875	500.2958374023438	988.3866577148438	818.0880737304688	535.0917358398438	896.9974975585938	1666.759399414062	276.8748168945312	1042.292846679688	1741.249755859375	132.8098754882812	1052.269653320312	1743.308471679688	261.9904174804688	875.8043212890625	1670.77783203125	140.8855133056641	941.9002685546875	988.1235961914062	44.10174179077148	974.5126342773438	1014.653503417969	409.842529296875	1057.703735351562	1040.663940429688	357.8369750976562	1063.81298828125	1026.798950195312	100.7513656616211	938.2940673828125	493.3524169921875	77.01395416259766	952.7584228515625	635.6787109375	48.72250366210938	836.23095703125	39.15215682983398	67.97248840332031	889.722900390625	273.8778381347656	58.98823547363281	1056.509399414062	37.71463012695312	76.7296142578125	1010.251037597656	39.17013549804688	127.7618026733398	941.665771484375	32.03913116455078	20.18861961364746	790.8214111328125	40.13508987426758	140.6950378417969	968.0968017578125	516.1890869140625	398.5370178222656	1022.462646484375	783.5487670898438	423.0151977539062	850.5569458007812	37.58985900878906	407.5933532714844	968.986328125	395.4917602539062	381.4604187011719	1075.723754882812	39.78893661499023	373.2173461914062	1018.778869628906	38.33457946777344	328.8190307617188	963.166015625	33.63154220581055	444.472900390625	799.2569580078125	37.42848587036133	339.3502502441406	
80	0.79	824.6442260742188	1051.25830078125	281.4204711914062	833.693603515625	1049.987915039062	155.4523773193359	829.1365966796875	1090.565795898438	219.5047302246094	1088.14404296875	1301.027221679688	220.9445648193359	796.784423828125	1244.215942382812	210.1391754150391	854.6871337890625	1515.373046875	197.3471527099609	1058.000366210938	1414.392944335938	208.6069488525391	788.6199340820312	1339.83349609375	305.9790344238281	852.1846923828125	1488.706176757812	97.83294677734375	932.632568359375	1477.708618164062	21.17635726928711	902.4664306640625	1344.1083984375	-51.22164916992188	918.97509765625	1125.866821289062	-65.16646575927734	864.9788208007812	1112.308349609375	4.926213264465332	1035.852783203125	900.4552001953125	-19.79001808166504	957.045166015625	873.4190673828125	-63.66859436035156	937.2203979492188	1014.842834472656	-74.80156707763672	1057.14111328125	713.6708374023438	7.698424816131592	980.0523681640625	804.4982299804688	-55.57888412475586	1050.33154296875	822.0384521484375	-36.76700592041016	913.7410278320312	1496.142333984375	381.6476440429688	891.8880615234375	1430.030883789062	451.3407592773438	882.807861328125	1141.125122070312	506.8898315429688	883.9577026367188	1131.561767578125	410.2231750488281	1029.856323242188	918.9614868164062	490.8612670898438	957.1355590820312	900.1017456054688	537.5494384765625	910.1400756835938	1069.665405273438	525.9407958984375	1051.5419921875	733.4973754882812	466.5744018554688	1060.16650390625	826.8501586914062	500.0606994628906	988.3330078125	818.0433959960938	534.8062744140625	896.9129638671875	1666.890014648438	276.9083862304688	1042.377075195312	1741.340454101562	132.9462280273438	1052.332397460938	1743.237060546875	262.1589660644531	875.7800903320312	1671.083740234375	140.9094543457031	941.997802734375	988.1234741210938	43.97962188720703	974.3643798828125	1014.668579101562	409.7380676269531	1057.631713867188	1040.64794921875	357.7878723144531	1063.884155273438	1026.755493164062	100.7049560546875	938.0855102539062	493.3628540039062	76.88217926025391	952.6251220703125	635.6815185546875	48.58952331542969	836.21142578125	39.11156845092773	67.89083862304688	889.6038208007812	273.9370727539062	58.85493087768555	1056.492797851562	37.71164703369141	76.71852874755859	1010.231872558594	39.2021484375	127.7369537353516	941.6488647460938	31.9742374420166	20.1219425201416	790.8157958984375	40.15061569213867	140.671142578125	968.0435791015625	516.237060546875	398.5683898925781	1022.301940917969	783.5784301757812	422.8687438964844	850.552734375	37.58795928955078	407.5909423828125	968.926025390625	395.5038452148438	381.4319152832031	1075.707763671875	39.78989028930664	373.2212219238281	1018.773864746094	38.33400344848633	328.8178405761719	963.1641845703125	33.63390731811523	444.4740905761719	799.2599487304688	37.42274856567383	339.3473510742188	
81	0.8	824.4972534179688	1051.311157226562	281.249755859375	833.7301025390625	1050.066284179688	155.3004760742188	829.207763671875	1090.6171875	219.3072509765625	1088.15380859375	1301.01904296875	220.8897705078125	796.905029296875	1244.18896484375	209.9681854248047	854.6793823242188	1515.355102539062	197.17138671875	1057.978149414062	1414.353149414062	208.4962005615234	788.6555786132812	1339.843872070312	305.8179626464844	852.2463989257812	1488.68701171875	97.70014953613281	932.6904907226562	1477.661865234375	21.03994941711426	902.4798583984375	1344.049438476562	-51.31778717041016	918.9683227539062	1125.809692382812	-65.2325439453125	864.994873046875	1112.2822265625	4.885317325592041	1035.697265625	900.2897338867188	-19.8775806427002	956.8375244140625	873.3394775390625	-63.74538421630859	937.1724243164062	1014.826416015625	-74.86576080322266	1056.75537109375	713.507568359375	7.556897640228271	979.808837890625	804.3795776367188	-55.67230606079102	1050.098754882812	821.908203125	-36.90922164916992	913.6975708007812	1496.133056640625	381.5283203125	891.8361206054688	1430.004028320312	451.2035522460938	882.712890625	1141.086669921875	506.6762390136719	883.8633422851562	1131.547119140625	410.0237731933594	1029.817260742188	918.9440307617188	490.6319580078125	957.0674438476562	900.0604858398438	537.2730712890625	910.015625	1069.613159179688	525.7230834960938	1051.51904296875	733.4877319335938	466.2740478515625	1060.084106445312	826.8386840820312	499.8038940429688	988.2765502929688	818.0012817382812	534.5062255859375	896.837646484375	1667.01513671875	276.991943359375	1042.44873046875	1741.440551757812	133.1204681396484	1052.410888671875	1743.1552734375	262.3613586425781	875.7493286132812	1671.402099609375	140.9746246337891	942.086181640625	988.1244506835938	43.85576248168945	974.2108154296875	1014.681945800781	409.641845703125	1057.558349609375	1040.6318359375	357.7476501464844	1063.95068359375	1026.713500976562	100.6661682128906	937.8726196289062	493.3766174316406	76.76100921630859	952.4859619140625	635.685791015625	48.45986938476562	836.1953125	39.07559585571289	67.80788421630859	889.489013671875	273.9952087402344	58.72841262817383	1056.4755859375	37.71020889282227	76.70677185058594	1010.213623046875	39.23522567749023	127.7121887207031	941.62939453125	31.90782737731934	20.05160140991211	790.808349609375	40.16411590576172	140.648193359375	967.9952392578125	516.2809448242188	398.6043395996094	1022.182739257812	783.6177368164062	422.7137451171875	850.5466918945312	37.58649063110352	407.5885314941406	968.8689575195312	395.5134887695312	381.4078979492188	1075.691650390625	39.78845596313477	373.2233581542969	1018.768005371094	38.33344268798828	328.8164367675781	963.1610107421875	33.63624954223633	444.4774475097656	799.2613525390625	37.41720962524414	339.3435668945312	
